<svg width="1440" height="730" viewBox="0 0 1440 730" fill="none" xmlns="http://www.w3.org/2000/svg">
<rect width="1440" height="730" fill="transparent"/>
<path fill-rule="evenodd" clip-rule="evenodd" d="M0.268188 0H1440.27V662C1440.27 662 1083.23 730 722.268 730C361.307 730 0.268188 662 0.268188 662V0Z" fill="#24053E"/>
<path d="M1393.65 417.201C1406.42 425.815 1416.21 436.188 1421.73 445.974C1427.27 455.79 1428.44 464.867 1424.28 471.035C1420.12 477.204 1411.27 479.52 1400.09 478.061C1388.95 476.607 1375.66 471.412 1362.89 462.798C1350.12 454.185 1340.33 443.812 1334.8 434.025C1329.27 424.21 1328.1 415.133 1332.26 408.965C1336.42 402.796 1345.27 400.48 1356.45 401.939C1367.59 403.393 1380.88 408.588 1393.65 417.201Z" stroke="#44FFA1"/>
<path d="M1405.65 399.201C1418.42 407.815 1428.21 418.188 1433.73 427.974C1439.27 437.79 1440.44 446.867 1436.28 453.035C1432.12 459.204 1423.27 461.52 1412.09 460.061C1400.95 458.607 1387.66 453.412 1374.89 444.798C1362.12 436.185 1352.33 425.812 1346.8 416.025C1341.27 406.21 1340.1 397.133 1344.26 390.965C1348.42 384.796 1357.27 382.48 1368.45 383.939C1379.59 385.393 1392.88 390.588 1405.65 399.201Z" stroke="#44FFA1"/>
<path opacity="0.75" d="M1416.65 382.201C1429.42 390.815 1439.21 401.188 1444.73 410.974C1450.27 420.79 1451.44 429.867 1447.28 436.035C1443.12 442.204 1434.27 444.52 1423.09 443.061C1411.95 441.607 1398.66 436.412 1385.89 427.798C1373.12 419.185 1363.33 408.812 1357.8 399.025C1352.27 389.21 1351.1 380.133 1355.26 373.965C1359.42 367.796 1368.27 365.48 1379.45 366.939C1390.59 368.393 1403.88 373.588 1416.65 382.201Z" stroke="#44FFA1"/>
<path opacity="0.5" d="M1428.65 364.201C1441.42 372.815 1451.21 383.188 1456.73 392.974C1462.27 402.79 1463.44 411.867 1459.28 418.035C1455.12 424.204 1446.27 426.52 1435.09 425.061C1423.95 423.607 1410.66 418.412 1397.89 409.798C1385.12 401.185 1375.33 390.812 1369.8 381.025C1364.27 371.21 1363.1 362.133 1367.26 355.965C1371.42 349.796 1380.27 347.48 1391.45 348.939C1402.59 350.393 1415.88 355.588 1428.65 364.201Z" stroke="#44FFA1"/>
<path opacity="0.25" d="M1441.65 346.201C1454.42 354.815 1464.21 365.188 1469.73 374.974C1475.27 384.79 1476.44 393.867 1472.28 400.035C1468.12 406.204 1459.27 408.52 1448.09 407.061C1436.95 405.607 1423.66 400.412 1410.89 391.798C1398.12 383.185 1388.33 372.812 1382.8 363.025C1377.27 353.21 1376.1 344.133 1380.26 337.965C1384.42 331.796 1393.27 329.48 1404.45 330.939C1415.59 332.393 1428.88 337.588 1441.65 346.201Z" stroke="#44FFA1"/>
<path d="M56.0306 287.883C69.8733 261.849 87.7205 241.133 105.363 228.678C123.031 216.205 140.356 212.101 153.267 218.966C166.178 225.831 172.464 242.488 172.003 264.111C171.543 285.702 164.349 312.082 150.506 338.117C136.663 364.151 118.816 384.867 101.174 397.322C83.5053 409.795 66.1807 413.899 53.2696 407.034C40.3585 400.169 34.0726 383.512 34.5335 361.889C34.9937 340.298 42.1878 313.918 56.0306 287.883Z" stroke="#44FFA1"/>
<path d="M20.0306 268.883C33.8733 242.849 51.7205 222.133 69.3628 209.678C87.0313 197.205 104.356 193.101 117.267 199.966C130.178 206.831 136.464 223.488 136.003 245.111C135.543 266.702 128.349 293.082 114.506 319.117C100.663 345.151 82.8161 365.867 65.1738 378.322C47.5053 390.795 30.1807 394.899 17.2696 388.034C4.35846 381.169 -1.92745 364.512 -1.46652 342.889C-1.00627 321.298 6.18784 294.918 20.0306 268.883Z" stroke="#44FFA1"/>
<path opacity="0.75" d="M-14.0865 250.353C-0.243104 224.317 17.5062 203.548 34.9902 191.008C52.5025 178.447 69.6041 174.233 82.267 180.966C94.9299 187.699 100.999 204.234 100.379 225.776C99.7595 247.283 92.4664 273.612 78.623 299.647C64.7797 325.683 47.0304 346.452 29.5464 358.992C12.0341 371.553 -5.0675 375.767 -17.7304 369.034C-30.3934 362.301 -36.4626 345.767 -35.8423 324.224C-35.2229 302.717 -27.9298 276.388 -14.0865 250.353Z" stroke="#44FFA1"/>
<path opacity="0.5" d="M-50.9694 229.883C-37.1267 203.849 -19.2795 183.133 -1.6372 170.678C16.0313 158.205 33.3559 154.101 46.267 160.966C59.1781 167.831 65.464 184.488 65.0031 206.111C64.5428 227.702 57.3487 254.082 43.506 280.117C29.6632 306.151 11.8161 326.867 -5.82624 339.322C-23.4947 351.795 -40.8193 355.899 -53.7304 349.034C-66.6415 342.169 -72.9274 325.512 -72.4665 303.889C-72.0063 282.298 -64.8122 255.918 -50.9694 229.883Z" stroke="#44FFA1"/>
<path opacity="0.25" d="M-87.0865 211.353C-73.2432 185.317 -55.4938 164.548 -38.0099 152.008C-20.4975 139.447 -3.39598 135.233 9.26695 141.966C21.9299 148.699 27.9992 165.234 27.3788 186.776C26.7594 208.283 19.4663 234.612 5.62298 260.647C-8.22037 286.683 -25.9697 307.452 -43.4537 319.992C-60.966 332.553 -78.0676 336.767 -90.7305 330.034C-103.393 323.301 -109.463 306.767 -108.842 285.224C-108.223 263.717 -100.93 237.388 -87.0865 211.353Z" stroke="#44FFA1"/>
</svg>
