<svg width="768" height="541" viewBox="0 0 768 541" fill="none" xmlns="http://www.w3.org/2000/svg">
<path fill-rule="evenodd" clip-rule="evenodd" d="M0 0H768V504C768 504 577.579 540.236 385.067 540.236C192.554 540.236 0 504 0 504V0Z" fill="#24053E"/>
<path d="M-33.2378 242.883C-19.3951 216.849 -1.54795 196.133 16.0944 183.678C33.7629 171.205 51.0875 167.101 63.9986 173.966C76.9097 180.831 83.1956 197.488 82.7346 219.111C82.2744 240.702 75.0803 267.082 61.2375 293.117C47.3948 319.151 29.5476 339.867 11.9053 352.322C-5.76317 364.795 -23.0878 368.899 -35.9989 362.034C-48.91 355.169 -55.1959 338.512 -54.7349 316.889C-54.2747 295.298 -47.0806 268.918 -33.2378 242.883Z" stroke="#44FFA1"/>
<path d="M-69.2378 223.883C-55.3951 197.849 -37.548 177.133 -19.9056 164.678C-2.23714 152.205 15.0875 148.101 27.9986 154.966C40.9097 161.831 47.1956 178.488 46.7346 200.111C46.2744 221.702 39.0803 248.082 25.2375 274.117C11.3948 300.151 -6.45235 320.867 -24.0947 333.322C-41.7632 345.795 -59.0878 349.899 -71.9989 343.034C-84.91 336.169 -91.1959 319.512 -90.7349 297.889C-90.2747 276.298 -83.0806 249.918 -69.2378 223.883Z" stroke="#44FFA1"/>
<path opacity="0.75" d="M-103.355 205.353C-89.5114 179.317 -71.7621 158.548 -54.2781 146.008C-36.7658 133.447 -19.6642 129.233 -7.0013 135.966C5.66164 142.699 11.7309 159.234 11.1105 180.776C10.4912 202.283 3.19808 228.612 -10.6453 254.647C-24.4886 280.683 -42.238 301.452 -59.7219 313.992C-77.2342 326.553 -94.3358 330.767 -106.999 324.034C-119.662 317.301 -125.731 300.766 -125.111 279.224C-124.491 257.717 -117.198 231.388 -103.355 205.353Z" stroke="#44FFA1"/>
<path opacity="0.5" d="M-140.238 184.883C-126.395 158.849 -108.548 138.133 -90.9056 125.678C-73.2371 113.205 -55.9125 109.101 -43.0014 115.966C-30.0903 122.831 -23.8044 139.488 -24.2654 161.111C-24.7256 182.702 -31.9197 209.082 -45.7625 235.117C-59.6052 261.151 -77.4524 281.867 -95.0947 294.322C-112.763 306.795 -130.088 310.899 -142.999 304.034C-155.91 297.169 -162.196 280.512 -161.735 258.889C-161.275 237.298 -154.081 210.918 -140.238 184.883Z" stroke="#44FFA1"/>
<path d="M766.976 353.127C779.746 361.741 789.54 372.114 795.062 381.901C800.601 391.716 801.77 400.793 797.61 406.961C793.449 413.13 784.596 415.446 773.42 413.987C762.277 412.533 748.99 407.338 736.22 398.725C723.451 390.111 713.656 379.738 708.134 369.952C702.595 360.136 701.426 351.059 705.587 344.891C709.747 338.722 718.601 336.406 729.777 337.865C740.92 339.319 754.206 344.514 766.976 353.127Z" stroke="#44FFA1"/>
<path d="M778.976 335.127C791.746 343.741 801.54 354.114 807.062 363.901C812.601 373.716 813.77 382.793 809.61 388.961C805.449 395.13 796.596 397.446 785.42 395.987C774.277 394.533 760.99 389.338 748.22 380.725C735.451 372.111 725.656 361.738 720.134 351.952C714.595 342.136 713.426 333.059 717.587 326.891C721.747 320.722 730.601 318.406 741.777 319.865C752.92 321.319 766.206 326.514 778.976 335.127Z" stroke="#44FFA1"/>
<path opacity="0.75" d="M789.976 318.127C802.746 326.741 812.54 337.114 818.062 346.901C823.601 356.716 824.77 365.793 820.61 371.961C816.449 378.13 807.596 380.446 796.42 378.987C785.277 377.533 771.99 372.338 759.22 363.725C746.451 355.111 736.656 344.738 731.134 334.952C725.595 325.136 724.426 316.059 728.587 309.891C732.747 303.722 741.601 301.406 752.777 302.865C763.92 304.319 777.206 309.514 789.976 318.127Z" stroke="#44FFA1"/>
<path opacity="0.5" d="M801.976 300.127C814.746 308.741 824.54 319.114 830.062 328.901C835.601 338.716 836.77 347.793 832.61 353.961C828.449 360.13 819.596 362.446 808.42 360.987C797.277 359.533 783.99 354.338 771.22 345.725C758.451 337.111 748.656 326.738 743.134 316.952C737.595 307.136 736.426 298.059 740.587 291.891C744.747 285.722 753.601 283.406 764.777 284.865C775.92 286.319 789.206 291.514 801.976 300.127Z" stroke="#44FFA1"/>
<path opacity="0.25" d="M814.976 282.127C827.746 290.741 837.54 301.114 843.062 310.901C848.601 320.716 849.77 329.793 845.61 335.961C841.449 342.13 832.596 344.446 821.42 342.987C810.277 341.533 796.99 336.338 784.22 327.725C771.451 319.111 761.656 308.738 756.134 298.952C750.595 289.136 749.426 280.059 753.587 273.891C757.747 267.722 766.601 265.406 777.777 266.865C788.92 268.319 802.206 273.514 814.976 282.127Z" stroke="#44FFA1"/>
</svg>
